<svg xmlns="http://www.w3.org/2000/svg" width="100" height="18" viewBox="0 0 100 18">
  <path fill="#333" fill-rule="evenodd" d="M12.32,14 L12.32,4.074 L9.282,4.074 L6.692,10.78 L3.962,4.074 L1.078,4.074 L1.078,14 L3.178,14 L3.178,7.504 L5.768,14 L7.56,14 L10.15,7.42 L10.15,14 L12.32,14 Z M18.716,14 L18.716,4.074 L16.476,4.074 L16.476,14 L18.716,14 Z M25.07,11.914 L26.358,11.914 C27.884,11.914 29.13,11.032 29.13,9.044 C29.13,7.056 27.884,6.16 26.358,6.16 L25.07,6.16 L25.07,11.914 Z M26.442,14 L22.858,14 L22.858,4.074 L26.456,4.074 C29.438,4.074 31.44,5.978 31.44,9.044 C31.44,12.11 29.438,14 26.442,14 Z M37.234,11.914 L38.522,11.914 C40.048,11.914 41.294,11.032 41.294,9.044 C41.294,7.056 40.048,6.16 38.522,6.16 L37.234,6.16 L37.234,11.914 Z M38.606,14 L35.022,14 L35.022,4.074 L38.62,4.074 C41.602,4.074 43.604,5.978 43.604,9.044 C43.604,12.11 41.602,14 38.606,14 Z M53.682,14 L53.682,11.886 L49.398,11.886 L49.398,4.074 L47.186,4.074 L47.186,14 L53.682,14 Z M63.41,14 L63.41,11.9 L59.322,11.9 L59.322,9.996 L63.018,9.996 L63.018,8.05 L59.322,8.05 L59.322,6.16 L63.396,6.16 L63.396,4.074 L57.11,4.074 L57.11,14 L63.41,14 Z M67.272,4.074 L70.982,4.074 C72.942,4.074 74.076,5.208 74.076,6.734 C74.076,7.756 73.432,8.596 72.62,8.862 C73.516,9.072 74.384,9.898 74.384,11.186 C74.384,12.81 73.152,14 71.276,14 L67.272,14 L67.272,4.074 Z M69.428,8.05 L70.632,8.05 C71.402,8.05 71.906,7.644 71.906,6.972 C71.906,6.328 71.472,5.908 70.604,5.908 L69.428,5.908 L69.428,8.05 Z M69.428,12.194 L70.814,12.194 C71.668,12.194 72.186,11.746 72.186,11.032 C72.186,10.346 71.682,9.87 70.814,9.87 L69.428,9.87 L69.428,12.194 Z M79.632,9.03 C79.632,11.102 81.116,12.026 82.502,12.026 C83.874,12.026 85.358,11.102 85.358,9.03 C85.358,6.958 83.874,6.02 82.502,6.02 C81.116,6.02 79.632,6.958 79.632,9.03 Z M77.336,9.044 C77.336,5.894 79.702,3.864 82.502,3.864 C85.288,3.864 87.654,5.894 87.654,9.044 C87.654,12.18 85.288,14.21 82.502,14.21 C79.702,14.21 77.336,12.18 77.336,9.044 Z M93.742,9.856 L93.742,14 L95.954,14 L95.954,9.856 L99.44,4.074 L96.976,4.074 L94.918,7.756 L92.888,4.074 L90.298,4.074 L93.742,9.856 Z"/>
</svg>
